<?xml version="1.0" standalone="yes"?>
<svg xmlns="http://www.w3.org/2000/svg" width="232" height="232">
<path style="fill:#010101; stroke:none;" d="M0 0L0 98L1 98C9.14425 86.5761 17.4759 95.7485 28 98.3897C32.1716 99.4366 36.0456 97.1175 40 97.9282C43.3863 98.6225 46.2416 102.067 49 104L59 78C47.7927 78 49.1656 73.5245 40.8951 68.4136C35.4573 65.0532 28.1581 64.3 23.1481 60.3009C19.1436 57.1044 18.6316 48.5851 24.1088 46.3889C30.9876 43.6307 45.8768 53.3513 53 55C51.8614 47.2899 41.349 32.2421 44.3642 25.1088C46.6541 19.6913 55.0599 20.0878 58.3009 24.1481C62.0283 28.8177 63.1062 35.7094 65.9043 40.9568C70.6434 49.8439 76 49.4574 76 61L103 50C101.016 47.1771 97.5095 44.3648 96.5455 41C95.2146 36.3541 98.2371 32.0681 96.3835 27C94.5574 22.0071 89.4209 14.4183 90.2708 9.00076C90.9989 4.35986 97.4035 -0.536163 101.775 2.61884C105.671 5.43031 107.711 12.7254 109.576 17C111.332 21.0253 113.313 24.949 115 29L116 29L130 1C119.734 -3.30765 102.158 0 91 0L0 0z"/>
<path style="fill:#e16527; stroke:none;" d="M116 29L115 29C113.792 24.8066 111.729 21.0002 110 17C108.165 12.7565 106.212 5.60976 102.582 2.60417C98.2088 -1.01614 91.196 3.14546 89.9275 8.00386C88.487 13.5206 94.0922 21.9218 95.9923 27C99.7684 37.0921 94.0523 41.0196 103 50C93.3111 50.8459 84.0027 55.7223 76 61C76 57.421 76.8584 52.4187 74.9722 49.213C72.7241 45.3921 68.0781 44.1803 65.9043 39.9846C63.2702 34.9003 62.1565 27.6038 58.3009 23.3179C55.0218 19.6728 45.5964 19.8959 43.8356 25.1088C41.2928 32.6371 51.219 47.3054 53 55C46.0192 52.7247 31.229 43.5425 24.1088 45.8465C18.8608 47.5446 18.7073 57.0529 22.3179 60.3009C26.6038 64.1565 33.9002 65.2702 38.9846 67.9043C43.2177 70.0975 44.0602 74.4826 47.6373 76.9722C50.4913 78.9585 55.6937 78 59 78L49 104C40.7073 95.8052 37.4309 100.856 28 98.0918C22.0101 96.3363 15.3483 91.1383 9 91.3333C4.05768 91.4852 -1.41244 97.7327 0.757716 102.725C3.7439 109.595 21.6457 113.384 28 117C23.6181 118.824 19.3398 120.928 15 122.861C11.0412 124.624 4.53943 126.391 1.6034 129.649C-2.78511 134.519 2.33353 142.17 8 142.667C14.1673 143.209 21.2914 138.047 26.9606 136.044C31.5197 134.433 34.6039 137.069 39 136.498C43.1002 135.965 46.2583 131.732 49 129C50.3119 138.735 54.2459 148.078 60 156C56.6446 156 51.531 155.066 48.6096 157.028C44.6737 159.67 43.5775 164.369 38.9846 166.676C34.0338 169.163 25.5973 170.352 21.9383 174.699C18.7636 178.471 19.6114 187.297 25.1049 188.473C29.7449 189.467 35.7664 185.884 40 184.319C44.6825 182.587 49.343 180.797 54 179C51.6314 186.267 42.0479 201.529 44.6435 208.941C46.426 214.031 55.8145 214.509 59.0062 210.682C63.058 205.823 63.8997 198.417 67.2137 193.043C69.4257 189.457 73.7161 188.602 75.9722 185.363C78.0901 182.322 77 176.534 77 173C85.0962 178.881 94.9479 183.179 105 184L105 185C101.883 186.618 98.6014 188.649 97.0679 192.004C95.2996 195.872 98.3959 199.507 97.7701 203.424C96.6697 210.313 88.6672 218.904 90.8356 225.995C96.035 243 107.589 222.611 110.22 217C112.047 213.103 113.818 209.136 115 205L116 205L127 232C147.345 231.998 137.447 218.634 133.919 206C132.815 202.047 134.998 198.818 134.498 195C133.912 190.536 128.98 186.982 126 184C136.931 183.773 147.015 178.926 156 173C156 176.647 154.958 182.276 157.028 185.471C159.372 189.088 163.842 189.944 165.956 194.043C168.585 199.14 169.775 207.577 174.394 211.258C178.192 214.285 186.59 213.507 187.589 207.956C188.49 202.948 184.331 196.584 182.692 192C181.239 187.934 179.831 183.916 178 180C185.136 182.414 200.539 192.026 207.867 189.218C213.392 187.1 212.869 178.123 208.772 174.994C204.004 171.353 197.254 170.418 192.043 167.471C188.372 165.394 187.582 161.268 184.363 159.028C181.137 156.783 174.758 158 171 158C177.313 149.721 182.54 139.551 183 129C191.883 137.852 194.846 133.059 205 135.919C217.196 139.355 231.984 149.621 232 129L205 118L205 116C211.82 114.035 225.609 109.675 230.397 104.351C234.109 100.223 230.534 93.4139 225.985 91.7577C220.412 89.7291 213.029 94.7879 208.001 96.7986C201.704 99.3166 198.06 96.3068 192.17 97.4113C188.725 98.0571 185.789 102.029 183 104C182.195 94.145 177.749 84.9133 172 77C175.455 77.1483 180.36 78.8713 183.61 77.3927C187.609 75.5732 188.902 69.776 193.015 67.4136C198.311 64.3723 206.064 63.4787 210.566 59.3009C214.525 55.6275 213.657 46.4932 207.956 44.9275C200.349 42.8383 186.705 52.2167 179 54C180.821 46.3155 189.645 33.7789 187.929 26.044C186.647 20.265 177.222 19.4939 173.649 23.3179C169.394 27.8724 168.323 35.5699 165.316 40.9568C160.384 49.7932 155 48.296 155 60C146.694 54.9165 137.905 50.4319 128 50C130.041 47.3285 133.528 45.0553 134.879 41.9606C136.448 38.3659 133.606 34.6897 133.935 31C134.609 23.4464 144.262 13.5159 140.642 6.01852C138.498 1.57907 131.873 -1.93881 127.969 2.43442C122.549 8.50616 118.24 21.2198 116 29z"/>
<path style="fill:#010101; stroke:none;" d="M134 0L134 1C147.78 7.5677 135.479 19.8562 133.703 30C133.052 33.7173 135.858 37.4203 134.647 40.9853C133.462 44.4723 129.677 46.6874 128 50L155 60C155.001 48.8304 160.506 50.1394 165.316 41.8951C168.618 36.2369 169.593 27.9543 174.394 23.3179C178.046 19.7905 185.497 20.7412 187.492 25.7585C190.136 32.4059 180.076 46.8192 179 54C186.817 52.8455 200.575 42.9415 207.956 45.5077C213.774 47.5305 214.103 55.7305 209.772 59.3009C204.871 63.341 197.49 64.1931 192.043 67.4136C188.098 69.7461 187.279 74.7329 183.61 76.9576C180.593 78.7862 175.382 77.0698 172 77L183 104C186.157 102.518 188.22 99.5544 191.285 98.1204C194.93 96.4154 199.107 99.6279 203 98.9113C213.181 97.0369 222.782 85.9731 231 97L232 97L232 0L134 0M178 54L179 55L178 54M155 60L156 61L155 60M88 77C93.0347 87.7951 98.6239 85.2271 108 83L108 69L88 77M123 69L123 83C133.943 84.9507 137.395 87.795 145 77L123 69M76 89L68 110C79.8905 110 79.7157 108.223 86 99L86 98L76 89M155 89C146.646 97.3604 147.464 99.3252 150 110L164 110C163.658 102.52 160.779 93.954 155 89M110.004 102.703C91.3721 109.083 102.449 137.822 120.999 131.383C139.896 124.823 128.806 96.2647 110.004 102.703M0 103L0 130L28 117L0 103M231 104L205 116L205 118L232 129L231 104M68 125L76 145C83.12 141.679 89.1065 132.065 80.49 126.028C77.4445 123.894 71.5456 125 68 125M164 125C160.206 125 152.929 123.588 150.074 126.603C145.445 131.492 146.123 143.793 154.895 143.793C160.894 143.793 163.412 129.36 164 125M48 129C39.7313 137.239 37.4354 132.853 28 135.336C16.4722 138.37 11.2237 145.29 0 138L0 232L95 232C88.1781 221.455 94.8099 215.843 97.6636 205C100.208 195.331 95.1616 192.502 105 185L105 184L77 173C77 176.454 77.9118 181.567 75.9722 184.61C73.6543 188.245 68.9365 189.007 66.6836 193.043C63.6768 198.43 62.6062 206.128 58.3511 210.682C54.754 214.532 46.2091 213.547 44.7886 207.981C42.8359 200.329 52.2072 186.746 54 179C46.5136 181.043 32.6966 190.272 25.1049 188.073C19.7757 186.53 19.0018 178.264 22.564 174.699C26.8093 170.45 34.7101 169.386 39.9568 166.676C49.1179 161.944 48.1827 156 60 156L48 129M183 129C182.109 139.905 176.164 148.688 171 158C174.694 158 180.363 156.959 183.61 159.028C186.874 161.107 187.604 165.401 191.105 167.471C196.556 170.694 203.923 171.497 208.772 175.649C212.789 179.089 212.887 187.418 206.945 189.073C199.245 191.216 185.708 181.827 178 180C180.323 186.867 189.051 200.893 187.211 207.956C185.617 214.078 177.114 213.82 173.649 209.772C169.768 205.238 168.761 198.31 165.956 193.105C163.847 189.191 159.234 188.312 157.028 184.671C155.126 181.532 156 176.525 156 173C146.095 177.625 137.286 183.508 126 184C128.402 187.411 133.206 190.817 134.072 195C134.905 199.028 132.628 202.748 133.905 207C136.798 216.629 142.671 222.393 137 232L232 232L232 138C221.15 145.283 216.231 138.356 205 135.613C200.876 134.606 196.942 136.987 193 136.096C189.199 135.238 186.114 131.191 183 129M88 157L108 165L108 151C98.0924 148.647 94.5927 147.642 88 157M123 151L123 165L144 157C136.765 146.73 133.511 149.126 123 151M115 205L103 232L127 232L115 205z"/>
</svg>
