<?xml version="1.0" standalone="no"?>
<!DOCTYPE svg PUBLIC "-//W3C//DTD SVG 20010904//EN"
    "http://www.w3.org/TR/2001/REC-SVG-20010904/DTD/svg10.dtd">
<svg version="1.0" xmlns="http://www.w3.org/2000/svg"
    width="300.000000pt" height="300.000000pt" viewBox="0 0 300.000000 300.000000"
    preserveAspectRatio="xMidYMid meet">

<g transform="translate(0.000000,300.000000) scale(0.100000,-0.100000)"
fill="#000000" stroke="none">
<path d="M1295 2856 c-696 -115 -1193 -719 -1162 -1411 16 -346 143 -644 377
-889 194 -202 448 -342 730 -403 128 -27 399 -25 537 5 180 39 344 109 498
212 100 66 294 261 360 360 306 462 313 1057 16 1512 -195 299 -500 513 -849
594 -133 31 -380 41 -507 20z m425 -41 c549 -89 999 -534 1095 -1085 22 -125
23 -336 1 -460 -31 -175 -107 -362 -212 -522 -64 -98 -259 -291 -359 -357
-232 -152 -474 -225 -745 -224 -351 1 -661 125 -917 367 -176 166 -313 397
-375 631 -31 116 -32 127 -32 325 -1 224 8 284 66 450 115 325 358 600 666
754 98 49 260 103 363 120 115 19 332 19 449 1z"/>
<path d="M1507 2013 c-22 -3 -27 -8 -22 -21 21 -53 46 -194 56 -305 15 -179
-8 -415 -57 -583 -5 -20 -1 -22 93 -28 193 -14 333 32 436 144 88 95 124 214
114 381 -13 210 -95 338 -252 394 -38 14 -86 19 -195 21 -80 1 -158 0 -173 -3z
m538 -228 c55 -54 17 -160 -99 -283 -39 -41 -98 -94 -132 -118 -59 -42 -158
-94 -180 -94 -6 0 -14 25 -17 56 -24 232 150 461 351 463 43 1 57 -3 77 -24z"/>
<path d="M860 1865 c0 -80 1 -145 3 -145 2 0 38 18 81 40 83 43 119 49 154 24
34 -23 29 -83 -14 -179 -91 -204 -111 -293 -93 -406 18 -115 11 -110 182 -112
81 -1 147 -1 147 -1 0 1 -18 39 -39 85 -49 103 -84 212 -101 304 -15 87 -10
240 10 280 33 66 102 66 200 0 29 -19 54 -35 56 -35 2 0 4 65 4 145 l0 145
-295 0 -295 0 0 -145z"/>
</g>
</svg>
